HIERARCHY
ROOT Hips
{
	OFFSET 0.000000 0.000000 0.000000
	CHANNELS 6 Xposition Yposition Zposition Zrotation Yrotation Xrotation 
	JOINT LHipJoint
	{
		OFFSET 0.000000 0.000000 0.000000
		CHANNELS 3 Zrotation Yrotation Xrotation
		JOINT LeftUpLeg
		{
			OFFSET 1.363060 -1.794630 0.839290
			CHANNELS 3 Zrotation Yrotation Xrotation
			JOINT LeftLeg
			{
				OFFSET 2.448110 -6.726130 0.000000
				CHANNELS 3 Zrotation Yrotation Xrotation
				JOINT LeftFoot
				{
					OFFSET 2.562200 -7.039590 0.000000
					CHANNELS 3 Zrotation Yrotation Xrotation
					JOINT LeftToeBase
					{
						OFFSET 0.157640 -0.433110 2.322550
						CHANNELS 3 Zrotation Yrotation Xrotation
						End Site
						{
							OFFSET 0.000000 0.000000 0.000000
						}
					}
				}
			}
		}
	}
	JOINT RHipJoint
	{
		OFFSET 0.000000 0.000000 0.000000
		CHANNELS 3 Zrotation Yrotation Xrotation
		JOINT RightUpLeg
		{
			OFFSET -1.305520 -1.794630 0.839290
			CHANNELS 3 Zrotation Yrotation Xrotation
			JOINT RightLeg
			{
				OFFSET -2.542530 -6.985550 0.000000
				CHANNELS 3 Zrotation Yrotation Xrotation
				JOINT RightFoot
				{
					OFFSET -2.568260 -7.056230 0.000000
					CHANNELS 3 Zrotation Yrotation Xrotation
					JOINT RightToeBase
					{
						OFFSET -0.164730 -0.452590 2.363150
						CHANNELS 3 Zrotation Yrotation Xrotation
						End Site
						{
							OFFSET 0.000000 0.000000 0.000000
						}
					}
				}
			}
		}
	}
}
MOTION
Frames: 33
Frame Time: 0.008333
2.318468 16.168797 2.805486 -13.476857 -86.345156 34.141385 -12.037349 -0.306064 1.829366 0.656299 11.625949 -48.071522 -1.406710 2.790582 42.113741 2.507504 12.338423 -8.495005 0.198300 -0.000000 -63.434400 9.206138 1.370761 -0.499935 -4.103053 -15.080435 -31.680146 1.039423 -0.991893 28.609713 -2.485073 -13.441787 1.831675 -3.154900 -0.000000 -81.279499
2.296711 16.195048 2.817667 -7.524307 -83.371674 28.387125 -11.697784 -0.109579 2.272335 0.759810 9.632352 -48.470761 -1.353895 2.638030 41.203736 2.349830 11.373545 -7.987588 0.296400 0.000000 -63.470200 9.548417 1.425494 -0.807167 -4.159704 -16.433920 -30.060224 1.042778 -0.889608 27.467610 -2.632819 -14.433520 2.201553 -3.456600 -0.000001 -81.015800
2.273050 16.226228 2.827569 -3.677393 -80.201954 24.784457 -11.439233 0.023306 2.729492 0.758459 7.498480 -48.803686 -1.297549 2.449603 40.092044 2.180679 10.391415 -7.322759 0.406500 -0.000000 -63.531601 9.801721 1.399448 -1.107367 -4.306237 -17.926932 -28.381265 1.069504 -0.794133 26.125101 -2.772532 -15.409384 2.688216 -3.797600 0.000000 -80.722100
2.247206 16.261518 2.835680 -0.905221 -76.921347 22.316424 -11.220267 0.139338 3.207264 0.678034 5.264114 -49.084753 -1.246774 2.242375 38.777074 2.003238 9.408250 -6.493178 0.523200 0.000001 -63.633000 10.007617 1.337783 -1.403081 -4.513331 -19.530078 -26.678922 1.109864 -0.694743 24.603098 -2.902494 -16.373664 3.304590 -4.189200 0.000000 -80.552900
2.219507 16.300186 2.842297 1.247334 -73.579147 20.526577 -11.014069 0.255440 3.700975 0.535896 2.956956 -49.301359 -1.205788 2.023335 37.260412 1.819855 8.440484 -5.495103 0.640700 0.000000 -63.782200 10.193283 1.262037 -1.697178 -4.771138 -21.228335 -24.972902 1.160205 -0.590528 22.934244 -3.020604 -17.315500 4.035488 -4.628900 0.000001 -80.345400
2.190126 16.341401 2.847777 3.005663 -70.216447 19.191860 -10.804219 0.377454 4.205707 0.348165 0.598943 -49.444600 -1.176884 1.796857 35.549899 1.633796 7.508509 -4.328948 0.753900 0.000000 -63.980000 10.375998 1.184043 -1.989935 -5.072231 -23.004564 -23.287271 1.218210 -0.482509 21.148982 -3.126982 -18.234080 4.872522 -5.117600 -0.000000 -80.050300
2.159755 16.384411 2.852465 4.489839 -66.872377 18.184851 -10.580536 0.504658 4.713429 0.131197 -1.787332 -49.502545 -1.161611 1.566677 33.658967 1.449028 6.636038 -3.001342 0.859500 0.000000 -64.217600 10.567081 1.112082 -2.282818 -5.412992 -24.836801 -21.638827 1.280886 -0.372257 19.272172 -3.223730 -19.140248 5.817396 -5.661900 0.000000 -79.833400
2.128900 16.428382 2.856568 5.774191 -63.587793 17.425713 -10.337762 0.633225 5.215393 -0.098124 -4.178038 -49.464879 -1.161259 1.336294 31.608016 1.270086 5.848567 -1.525968 0.956500 0.000001 -64.476399 10.773135 1.051489 -2.577313 -5.790484 -26.697363 -20.042904 1.346370 -0.262280 17.341140 -3.311542 -20.030386 6.847277 -6.255999 0.000000 -79.601301
2.098334 16.472545 2.860332 6.900537 -60.403330 16.861708 -10.075349 0.756876 5.702470 -0.320999 -6.546811 -49.326398 -1.176414 1.109324 29.426012 1.101686 5.170783 0.075574 1.047400 -0.000001 -64.729800 10.995925 1.005147 -2.873888 -6.199273 -28.548941 -18.510180 1.411681 -0.154548 15.390224 -3.392753 -20.909212 7.940354 -6.896000 0.000000 -79.302201
2.068966 16.516140 2.863752 7.899061 -57.356836 16.446630 -9.795227 0.868567 6.165628 -0.522123 -8.869408 -49.084121 -1.207059 0.888803 27.147984 0.948501 4.626221 1.774569 1.138101 -0.000000 -64.945601 11.234523 0.974961 -3.173900 -6.637285 -30.362002 -17.047409 1.474757 -0.051504 13.454381 -3.468106 -21.770626 9.070145 -7.571600 0.000000 -78.945499
2.041556 16.558531 2.866940 8.783373 -54.486677 16.152958 -9.503913 0.961381 6.596878 -0.683241 -11.116078 -48.746469 -1.251959 0.677958 24.817417 0.814304 4.230425 3.534775 1.236600 0.000000 -65.091500 11.483483 0.959053 -3.473503 -7.091883 -32.084936 -15.656127 1.530105 0.046845 11.553173 -3.542900 -22.638372 10.224555 -8.288700 0.000001 -78.588200
2.016838 16.599007 2.869698 9.571220 -51.822097 15.943886 -9.207150 1.030838 6.990177 -0.798517 -13.263461 -48.322196 -1.309584 0.478914 22.481068 0.701879 3.993500 5.315593 1.352900 0.000001 -65.135299 11.737071 0.957030 -3.773552 -7.561550 -33.708146 -14.346165 1.579842 0.136795 9.737892 -3.612391 -23.466621 11.343074 -9.006401 0.000000 -78.052100
1.995707 16.637138 2.872173 10.255603 -49.394446 15.808926 -8.916402 1.073240 7.338878 -0.855971 -15.274022 -47.834773 -1.376183 0.294617 20.193252 0.611851 3.907375 7.071652 1.493100 0.000000 -65.057100 11.985336 0.961982 -4.064380 -8.020467 -35.169228 -13.112265 1.616322 0.221219 8.001583 -3.684254 -24.300915 12.432797 -9.746200 0.000000 -77.483900
1.978477 16.672434 2.874045 10.854856 -47.222889 15.717067 -8.638180 1.089360 7.639824 -0.867804 -17.125026 -47.301048 -1.449424 0.125966 17.999617 0.543965 3.961793 8.760596 1.662700 0.000000 -64.840600 12.222720 0.973060 -4.341779 -8.467273 -36.464354 -11.966149 1.639697 0.298041 6.374628 -3.756873 -25.122755 13.471939 -10.491000 0.000000 -77.003300
1.965725 16.704563 2.875398 11.363372 -45.322530 15.657118 -8.382514 1.081799 7.890570 -0.841880 -18.781691 -46.745485 -1.525450 -0.025156 15.951644 0.495051 4.123089 10.338019 1.857400 0.000000 -64.489800 12.439554 0.984345 -4.602889 -8.883229 -37.592282 -10.918622 1.656351 0.365778 4.893599 -3.821579 -25.862212 14.386387 -11.175200 0.000001 -76.149400
1.957833 16.733540 2.876392 11.776498 -43.707949 15.630345 -8.160362 1.053819 8.087301 -0.790502 -20.205948 -46.198419 -1.600122 -0.157353 14.090993 0.460879 4.348484 11.768098 2.065600 -0.000000 -64.022400 12.629775 0.988318 -4.830667 -9.235355 -38.484589 -9.963836 1.652599 0.430920 3.500766 -3.894203 -26.637190 15.258347 -11.887700 -0.000000 -75.575800
1.954650 16.759076 2.876718 12.112657 -42.373752 15.610317 -7.973787 1.011848 8.233102 -0.744812 -21.387941 -45.666168 -1.672671 -0.271376 12.441562 0.437335 4.604514 13.025481 2.275900 0.000001 -63.463300 12.789706 0.988731 -5.035283 -9.540882 -39.229684 -9.132394 1.649518 0.485521 2.283142 -3.951419 -27.269320 15.969810 -12.484000 -0.000000 -74.686500
1.956347 16.781447 2.876593 12.367833 -41.320406 15.605936 -7.830248 0.959397 8.326745 -0.716974 -22.303726 -45.172533 -1.740171 -0.366998 11.022552 0.419478 4.846655 14.094385 2.469800 -0.000000 -62.851600 12.916530 0.979832 -5.203871 -9.771388 -39.777499 -8.418569 1.636962 0.535476 1.179637 -4.005608 -27.853555 16.595100 -13.038800 0.000000 -73.889600
1.962433 16.800688 2.875996 12.554824 -40.534301 15.613019 -7.730717 0.900014 8.371098 -0.722277 -22.953027 -44.726868 -1.802131 -0.445605 9.836337 0.403484 5.045894 14.971723 2.633400 0.000000 -62.227400 13.010277 0.962912 -5.338748 -9.929151 -40.161743 -7.832670 1.621657 0.579469 0.198172 -4.051095 -28.346643 17.120391 -13.517600 -0.000001 -73.126200
1.972437 16.817081 2.874947 12.681145 -39.999268 15.639342 -7.675885 0.835004 8.368059 -0.763601 -23.339647 -44.344124 -1.857765 -0.508558 8.878114 0.386164 5.178661 15.664120 2.755000 0.000001 -61.631200 13.073005 0.936281 -5.435183 -10.002193 -40.369609 -7.371228 1.599126 0.620496 -0.704740 -4.094418 -28.801096 17.593994 -13.966600 -0.000000 -72.631000
1.985497 16.830617 2.873061 12.771111 -39.679875 15.662254 -7.656377 0.765610 8.326206 -0.851820 -23.504393 -44.011963 -1.909878 -0.559246 8.124175 0.366735 5.252136 16.190144 2.837700 0.000000 -61.092001 13.107892 0.911174 -5.519540 -10.042237 -40.557126 -7.057859 1.600279 0.648259 -1.431350 -4.104881 -28.976887 17.898620 -14.190000 -0.000000 -71.768500
2.001149 16.841879 2.870723 12.811459 -39.567546 15.729489 -7.678190 0.688830 8.240107 -0.960186 -23.437353 -43.771161 -1.954445 -0.597132 7.572783 0.342570 5.239137 16.564393 2.868900 -0.000000 -60.644300 13.120777 0.869757 -5.553311 -9.969952 -40.503779 -6.833668 1.575204 0.682768 -2.216026 -4.135264 -29.292322 18.280954 -14.536900 0.000000 -71.586900
2.018056 16.850273 2.867471 12.852849 -39.601175 15.783842 -7.717766 0.606746 8.132030 -1.109893 -23.230535 -43.589366 -1.999385 -0.628519 7.185360 0.316334 5.191980 16.814273 2.875400 0.000000 -60.286200 13.113741 0.847006 -5.607695 -9.920905 -40.631634 -6.804933 1.607974 0.692589 -2.715883 -4.105694 -29.111819 18.420459 -14.485100 -0.000000 -71.010500
2.035253 16.856870 2.862395 12.876872 -39.780053 15.869965 -7.785196 0.513326 7.980849 -1.274483 -22.859041 -43.482781 -2.039712 -0.650680 6.951959 0.285574 5.077084 16.962592 2.842300 -0.000000 -60.045401 13.100327 0.807408 -5.618272 -9.790900 -40.521706 -6.789046 1.604408 0.715119 -3.383986 -4.103401 -29.141190 18.701481 -14.623000 -0.000000 -71.037899
2.051943 16.860737 2.856228 12.927513 -40.048342 15.954957 -7.857145 0.411897 7.817769 -1.455699 -22.425595 -43.449655 -2.080428 -0.670737 6.837828 0.255971 4.968514 17.031023 2.807100 0.000000 -59.900900 13.077024 0.789787 -5.652732 -9.689343 -40.597603 -6.957123 1.653217 0.715747 -3.805943 -4.049859 -28.733738 18.777210 -14.409801 0.000000 -70.785500
2.067016 16.862683 2.847657 12.987289 -40.392940 16.050252 -7.937042 0.301168 7.622983 -1.659015 -21.902094 -43.478371 -2.121028 -0.684388 6.850428 0.222661 4.817016 17.027796 2.747500 -0.000000 -59.849200 13.057430 0.769072 -5.677515 -9.568787 -40.608606 -7.141483 1.694295 0.720330 -4.301532 -3.996704 -28.328537 18.891469 -14.216000 0.000000 -70.761299
2.079935 16.862297 2.837374 13.070875 -40.785618 16.155824 -8.010335 0.185397 7.418146 -1.865786 -21.356806 -43.574835 -2.160976 -0.696678 6.951056 0.191824 4.683532 16.973601 2.693500 0.000000 -59.874099 13.045155 0.758850 -5.701924 -9.451249 -40.647782 -7.407408 1.745297 0.719442 -4.742409 -3.932198 -27.809899 18.962181 -13.937200 0.000000 -70.951700
2.089896 16.859765 2.825321 13.167608 -41.202739 16.260645 -8.066994 0.072271 7.212795 -2.077960 -20.810043 -43.718961 -2.201245 -0.707984 7.123739 0.163627 4.572089 16.876897 2.647900 -0.000000 -59.954300 13.049257 0.755842 -5.723009 -9.345555 -40.719212 -7.716604 1.803858 0.715689 -5.148931 -3.856523 -27.189602 18.987844 -13.582300 0.000000 -71.224400
2.096200 16.855303 2.812404 13.267465 -41.631407 16.364330 -8.098475 -0.028213 7.029127 -2.276321 -20.296649 -43.900812 -2.240301 -0.721052 7.330995 0.141823 4.514616 16.752871 2.626100 0.000000 -60.073300 13.075422 0.755426 -5.724068 -9.241843 -40.796371 -8.063312 1.863179 0.711607 -5.522848 -3.776752 -26.522196 18.974527 -13.189000 -0.000000 -71.562500
2.098802 16.849271 2.799228 13.340057 -42.054805 16.466368 -8.112896 -0.111276 6.864379 -2.476624 -19.776333 -44.120660 -2.277625 -0.728425 7.622289 0.119505 4.435880 16.573322 2.591600 -0.000000 -60.186700 13.118404 0.744586 -5.707123 -9.124801 -40.871428 -8.383534 1.921550 0.713283 -5.920108 -3.692216 -25.838944 18.948106 -12.787400 0.000000 -71.906799
2.098362 16.841315 2.786332 13.403689 -42.441511 16.544675 -8.098464 -0.176665 6.746819 -2.644758 -19.347221 -44.344874 -2.311393 -0.739107 7.914926 0.107187 4.439335 16.373156 2.593000 -0.000000 -60.310600 13.181871 0.727892 -5.663916 -9.022443 -40.961084 -8.703010 1.977255 0.713540 -6.258653 -3.608529 -25.146808 18.864931 -12.364600 0.000000 -72.239800
2.095475 16.830934 2.774400 13.454337 -42.777854 16.629018 -8.068383 -0.229837 6.653760 -2.787672 -18.989386 -44.598715 -2.338350 -0.747471 8.247290 0.101366 4.470545 16.124573 2.602200 -0.000000 -60.428000 13.253277 0.710997 -5.615798 -8.923538 -41.036483 -8.986064 2.026397 0.716883 -6.577229 -3.531962 -24.509136 18.736527 -11.962800 -0.000000 -72.545799
2.090841 16.817903 2.764367 13.483581 -43.046392 16.731138 -8.023933 -0.270850 6.587822 -2.891562 -18.724333 -44.885500 -2.356126 -0.753852 8.612723 0.103244 4.532623 15.824503 2.619600 -0.000000 -60.536601 13.329226 0.694894 -5.568672 -8.825958 -41.095101 -9.225723 2.068460 0.723857 -6.867370 -3.466063 -23.955207 18.557771 -11.596200 0.000000 -72.816600
